<svg width="40" height="39" viewBox="0 0 40 39" fill="none" xmlns="http://www.w3.org/2000/svg">
<path d="M29.6976 9.51146H29.7019M26.3586 19.5285C26.3586 23.2166 23.3687 26.2065 19.6806 26.2065C15.9924 26.2065 13.0026 23.2166 13.0026 19.5285C13.0026 15.8403 15.9924 12.8505 19.6806 12.8505C23.3687 12.8505 26.3586 15.8403 26.3586 19.5285ZM8.23257 37.3365H31.1286C34.6411 37.3365 37.4886 34.489 37.4886 30.9765V8.08046C37.4886 4.56793 34.6411 1.72046 31.1285 1.72046H8.23256C4.72003 1.72046 1.87256 4.56793 1.87256 8.08046V30.9765C1.87256 34.489 4.72003 37.3365 8.23257 37.3365Z" stroke="#FC7B7B" stroke-width="3.18" stroke-linecap="round" stroke-linejoin="round"/>
</svg>
