<svg width="21" height="21" viewBox="0 0 21 21" fill="none" xmlns="http://www.w3.org/2000/svg">
<path d="M15.7251 5.54555H15.7273M14.0038 10.7093C14.0038 12.6105 12.4626 14.1518 10.5613 14.1518C8.66011 14.1518 7.11885 12.6105 7.11885 10.7093C7.11885 8.80806 8.66011 7.2668 10.5613 7.2668C12.4626 7.2668 14.0038 8.80806 14.0038 10.7093ZM4.5294 19.8893H16.5933C18.3319 19.8893 19.7413 18.4799 19.7413 16.7412V4.67734C19.7413 2.93873 18.3319 1.5293 16.5933 1.5293H4.52939C2.79078 1.5293 1.38135 2.93873 1.38135 4.67735V16.7412C1.38135 18.4799 2.79078 19.8893 4.5294 19.8893Z" stroke="#FC7B7B" stroke-width="1.57402" stroke-linecap="round" stroke-linejoin="round"/>
</svg>
