<svg width="25" height="26" viewBox="0 0 25 26" fill="none" xmlns="http://www.w3.org/2000/svg">
<path d="M18.6484 6.81016H18.6512M16.5484 13.1102C16.5484 15.4298 14.668 17.3102 12.3484 17.3102C10.0288 17.3102 8.14844 15.4298 8.14844 13.1102C8.14844 10.7906 10.0288 8.91016 12.3484 8.91016C14.668 8.91016 16.5484 10.7906 16.5484 13.1102ZM5.14843 24.3102H19.5484C21.7576 24.3102 23.5484 22.5193 23.5484 20.3102V5.91016C23.5484 3.70102 21.7576 1.91016 19.5484 1.91016H5.14844C2.9393 1.91016 1.14844 3.70101 1.14844 5.91015V20.3102C1.14844 22.5193 2.93929 24.3102 5.14843 24.3102Z" stroke="#FC7B7B" stroke-width="2" stroke-linecap="round" stroke-linejoin="round"/>
</svg>
