<svg width="26" height="26" viewBox="0 0 26 26" fill="none" xmlns="http://www.w3.org/2000/svg">
<path d="M25.1919 0.960083V25.4401H0.711914V0.960083H25.1919Z" fill="white" fill-opacity="0.01"/>
<path d="M4.06274 8.38472C4.17571 7.3139 5.0276 6.48806 6.10038 6.39552C7.81221 6.24784 10.4757 6.06006 12.9515 6.06006C15.4272 6.06006 18.0908 6.24784 19.8026 6.39552C20.8754 6.48806 21.7273 7.3139 21.8402 8.38472C21.9786 9.69624 22.1315 11.5246 22.1315 13.2001C22.1315 14.8755 21.9786 16.7039 21.8402 18.0154C21.7273 19.0862 20.8754 19.912 19.8026 20.0046C18.0908 20.1523 15.4272 20.3401 12.9515 20.3401C10.4757 20.3401 7.81221 20.1523 6.10038 20.0046C5.0276 19.912 4.17571 19.0862 4.06274 18.0154C3.92438 16.7039 3.77148 14.8755 3.77148 13.2001C3.77148 11.5246 3.92438 9.69624 4.06274 8.38472Z" stroke="#FC7B7B" stroke-width="1.57406"/>
<path d="M16.3239 12.7912C16.6387 12.9729 16.6387 13.4273 16.3239 13.6091L11.6206 16.3245C11.3057 16.5063 10.9122 16.2791 10.9122 15.9156L10.9122 10.4846C10.9122 10.1211 11.3057 9.89393 11.6206 10.0757L16.3239 12.7912Z" fill="#FC7B7B"/>
</svg>
