<svg width="52" height="51" viewBox="0 0 52 51" fill="none" xmlns="http://www.w3.org/2000/svg">
<path d="M51.7931 0.0904541V50.9705H0.913086V0.0904541H51.7931Z" fill="white" fill-opacity="0.01"/>
<path d="M7.88944 15.4169C8.11934 13.2537 9.84025 11.5848 12.0074 11.3968C15.5608 11.0886 21.1559 10.6904 26.3529 10.6904C31.55 10.6904 37.1451 11.0886 40.6984 11.3968C42.8656 11.5848 44.5866 13.2537 44.8165 15.4169C45.1069 18.1497 45.4329 22.0031 45.4329 25.5304C45.4329 29.0578 45.1069 32.9112 44.8165 35.644C44.5866 37.8071 42.8656 39.476 40.6984 39.664C37.1451 39.9723 31.55 40.3704 26.3529 40.3704C21.1559 40.3704 15.5608 39.9723 12.0074 39.664C9.84025 39.476 8.11934 37.8071 7.88944 35.644C7.599 32.9112 7.27295 29.0578 7.27295 25.5304C7.27295 22.0031 7.599 18.1497 7.88944 15.4169Z" stroke="#FC7B7B" stroke-width="3.18"/>
<path d="M33.4025 24.7042C34.0385 25.0714 34.0385 25.9894 33.4025 26.3566L23.5445 32.0481C22.9085 32.4153 22.1135 31.9563 22.1135 31.2219L22.1135 19.8389C22.1135 19.1045 22.9085 18.6455 23.5445 19.0127L33.4025 24.7042Z" fill="#FC7B7B"/>
</svg>
