<svg width="33" height="33" viewBox="0 0 33 33" fill="none" xmlns="http://www.w3.org/2000/svg">
<path d="M32.6338 0.111328V32.1113H0.633789V0.111328H32.6338Z" fill="white" fill-opacity="0.01"/>
<path d="M5.02152 9.75093C5.16611 8.39045 6.24845 7.34084 7.61146 7.22259C9.84626 7.02872 13.3652 6.77832 16.6338 6.77832C19.9024 6.77832 23.4213 7.02872 25.6561 7.22259C27.0191 7.34084 28.1015 8.39045 28.2461 9.75093C28.4287 11.4697 28.6338 13.8932 28.6338 16.1117C28.6338 18.3301 28.4287 20.7536 28.2461 22.4724C28.1015 23.8329 27.0191 24.8825 25.6561 25.0007C23.4213 25.1946 19.9024 25.445 16.6338 25.445C13.3652 25.445 9.84626 25.1946 7.61146 25.0007C6.24845 24.8825 5.16611 23.8329 5.02152 22.4724C4.83885 20.7536 4.63379 18.3301 4.63379 16.1117C4.63379 13.8932 4.83886 11.4697 5.02152 9.75093Z" stroke="#FC7B7B" stroke-width="2"/>
<path d="M21.067 15.592C21.467 15.823 21.467 16.4003 21.067 16.6313L14.867 20.2108C14.467 20.4418 13.967 20.1531 13.967 19.6912L13.967 12.5321C13.967 12.0702 14.467 11.7815 14.867 12.0125L21.067 15.592Z" fill="#FC7B7B"/>
</svg>
