<svg width="356" height="252" viewBox="0 0 356 252" fill="none" xmlns="http://www.w3.org/2000/svg">
<g opacity="0.73" filter="url(#filter0_f_645_1812)">
<path d="M306.402 162.868C306.402 169.446 304.779 175.923 301.678 181.724C298.578 187.526 294.094 192.473 288.624 196.127C283.155 199.782 276.869 202.031 270.322 202.676C263.776 203.321 257.172 202.341 251.094 199.824C245.017 197.306 239.654 193.329 235.481 188.244C231.308 183.159 228.454 177.124 227.17 170.672C225.887 164.22 226.214 157.552 228.124 151.257C230.034 144.962 233.466 139.236 238.117 134.584L266.402 162.868H306.402Z" fill="#FF6565"/>
</g>
<g opacity="0.53" filter="url(#filter1_f_645_1812)">
<path d="M137.745 88.0867C137.745 106.71 133.541 124.728 125.882 138.933C118.223 153.137 107.606 162.605 95.9222 165.651C84.2384 168.697 72.2465 165.122 62.0822 155.563C51.9179 146.005 44.2413 131.084 40.4197 113.457L87.7451 88.0867H137.745Z" fill="#F7F0D8" fill-opacity="0.63"/>
</g>
<g filter="url(#filter2_b_645_1812)">
<rect x="0.851562" y="0.738281" width="355" height="250.882" fill="#E08181" fill-opacity="0.12"/>
</g>
<path fill-rule="evenodd" clip-rule="evenodd" d="M314.633 12.2421L314.659 31.2272L294.651 31.2498L294.621 12.2659L314.633 12.2421ZM293.651 31.2509L293.621 12.267L273.621 12.2907L273.651 31.2735L293.651 31.2509ZM272.651 31.2746L272.621 12.2919L252.621 12.3156L252.651 31.2971L272.651 31.2746ZM251.651 31.2983L251.621 12.3168L231.621 12.3405L231.651 31.3208L251.651 31.2983ZM230.651 31.322L230.621 12.3417L210.621 12.3654L210.651 31.3445L230.651 31.322ZM209.651 31.3456L209.621 12.3666L189.621 12.3903L189.651 31.3682L209.651 31.3456ZM188.651 31.3693L188.621 12.3914L168.621 12.4151L168.651 31.3919L188.651 31.3693ZM167.651 31.393L167.621 12.4163L147.621 12.44L147.651 31.4156L167.651 31.393ZM146.651 31.4167L146.621 12.4412L126.621 12.4649L126.651 31.4392L146.651 31.4167ZM125.651 31.4404L125.621 12.4661L105.621 12.4898L105.651 31.4629L125.651 31.4404ZM104.651 31.464L104.621 12.491L84.6211 12.5147L84.6512 31.4866L104.651 31.464ZM83.6512 31.4877L83.6211 12.5159L63.6212 12.5395L63.6512 31.5103L83.6512 31.4877ZM62.6512 31.5114L62.6212 12.5407L42.6212 12.5644L42.6513 31.534L62.6512 31.5114ZM41.6513 31.5351L41.6212 12.5656L21.6213 12.5893L21.6513 31.5576L41.6513 31.5351ZM20.6513 31.5588L20.6213 12.5905L0.854461 12.6139L0.853415 11.6139L20.6197 11.5905L20.6033 1.22102L21.6033 1.22024L21.6197 11.5893L41.6196 11.5656L41.6033 1.22102L42.6033 1.22024L42.6196 11.5644L62.6196 11.5407L62.6033 1.22102L63.6033 1.22024L63.6196 11.5395L83.6196 11.5159L83.6033 1.22102L84.6033 1.22024L84.6196 11.5147L104.62 11.491L104.603 1.22102L105.603 1.22024L105.62 11.4898L125.619 11.4661L125.603 1.22102L126.603 1.22024L126.619 11.4649L146.619 11.4412L146.603 1.22102L147.603 1.22024L147.619 11.44L167.619 11.4163L167.603 1.22102L168.603 1.22024L168.619 11.4151L188.619 11.3914L188.603 1.22102L189.603 1.22024L189.619 11.3903L209.619 11.3666L209.603 1.22102L210.603 1.22024L210.619 11.3654L230.619 11.3417L230.603 1.22102L231.603 1.22024L231.619 11.3405L251.619 11.3168L251.603 1.22102L252.603 1.22024L252.619 11.3156L272.619 11.2919L272.603 1.22102L273.603 1.22024L273.619 11.2907L293.619 11.267L293.603 1.22102L294.603 1.22024L294.619 11.2659L314.631 11.2421L314.617 0.739119L315.617 0.738281L315.631 11.241L336.862 11.2158V0.762088H337.862V11.2146L355.854 11.1933L355.855 12.1933L337.862 12.2146V31.2011L355.854 31.1808L355.855 32.1808L337.862 32.2011V51.1886L355.854 51.1683L355.855 52.1683L337.862 52.1886V71.1761L355.854 71.1558L355.855 72.1558L337.862 72.1761V91.1636L355.854 91.1433L355.855 92.1433L337.862 92.1636V111.151L355.854 111.131L355.855 112.131L337.862 112.151V131.139L355.854 131.118L355.855 132.118L337.862 132.139V151.126L355.854 151.106L355.855 152.106L337.862 152.126V171.114L355.854 171.093L355.855 172.093L337.862 172.114V191.101L355.854 191.081L355.855 192.081L337.862 192.101V211.089L355.854 211.069L355.855 212.069L337.862 212.089V231.076L355.854 231.056L355.855 232.056L337.862 232.076V251.188H336.862V232.077L315.935 232.101L315.962 251.619L314.962 251.62L314.935 232.102L294.969 232.125L295 251.62L294 251.62L293.969 232.126L273.969 232.148L274 251.62L273 251.62L272.969 232.15L252.969 232.172L253 251.62L252 251.62L251.969 232.173L231.969 232.196L232 251.62L231 251.62L230.969 232.197L210.969 232.219L211 251.62L210 251.62L209.969 232.221L189.969 232.243L190 251.62L189 251.62L188.969 232.244L168.969 232.267L169 251.62L168 251.62L167.969 232.268L147.969 232.29L148 251.62L147 251.62L146.969 232.292L126.969 232.314L127 251.62L126 251.62L125.969 232.315L105.969 232.338L106 251.62L105 251.62L104.969 232.339L84.9692 232.362L84.9997 251.62L83.9997 251.62L83.9692 232.363L63.9692 232.385L63.9997 251.62L62.9997 251.62L62.9692 232.386L42.9693 232.409L42.9997 251.62L41.9997 251.62L41.9693 232.41L21.9693 232.433L21.9997 251.62L20.9997 251.62L20.9693 232.434L0.854493 232.456L0.853394 231.456L20.9677 231.434L20.9377 212.446L0.854493 212.469L0.853394 211.469L20.9361 211.446L20.906 192.459L0.854493 192.481L0.853394 191.481L20.9045 191.459L20.8744 172.471L0.854493 172.494L0.853394 171.494L20.8728 171.471L20.8427 152.484L0.854493 152.506L0.853394 151.506L20.8412 151.484L20.8111 132.496L0.854493 132.519L0.853394 131.519L20.8095 131.496L20.7795 112.509L0.854493 112.531L0.853394 111.531L20.7779 111.509L20.7478 92.5213L0.854493 92.5437L0.853394 91.5437L20.7462 91.5213L20.7162 72.5338L0.854493 72.5562L0.853394 71.5562L20.7146 71.5338L20.6845 52.5463L0.854493 52.5686L0.853394 51.5686L20.6829 51.5463L20.6529 32.5588L0.854493 32.5811L0.853394 31.5811L20.6513 31.5588ZM21.9677 231.433L41.9677 231.41L41.9376 212.423L21.9377 212.445L21.9677 231.433ZM42.9677 231.409L62.9677 231.386L62.9376 212.399L42.9376 212.421L42.9677 231.409ZM63.9677 231.385L83.9676 231.363L83.9376 212.375L63.9376 212.398L63.9677 231.385ZM84.9676 231.362L104.968 231.339L104.938 212.351L84.9376 212.374L84.9676 231.362ZM105.968 231.338L125.968 231.315L125.937 212.328L105.938 212.35L105.968 231.338ZM126.968 231.314L146.968 231.292L146.937 212.304L126.937 212.327L126.968 231.314ZM147.968 231.29L167.967 231.268L167.937 212.28L147.937 212.303L147.968 231.29ZM168.967 231.267L188.967 231.244L188.937 212.257L168.937 212.279L168.967 231.267ZM189.967 231.243L209.967 231.221L209.937 212.233L189.937 212.256L189.967 231.243ZM210.967 231.219L230.967 231.197L230.937 212.209L210.937 212.232L210.967 231.219ZM231.967 231.196L251.967 231.173L251.937 212.186L231.937 212.208L231.967 231.196ZM252.967 231.172L272.967 231.15L272.937 212.162L252.937 212.185L252.967 231.172ZM273.967 231.148L293.967 231.126L293.937 212.138L273.937 212.161L273.967 231.148ZM294.967 231.125L314.934 231.102L314.908 212.115L294.937 212.137L294.967 231.125ZM315.934 231.101L336.862 231.077V212.09L315.908 212.114L315.934 231.101ZM336.862 192.102V211.09L315.906 211.114L315.88 192.126L336.862 192.102ZM314.88 192.127L314.906 211.115L294.936 211.137L294.906 192.15L314.88 192.127ZM293.906 192.151L293.936 211.138L273.936 211.161L273.906 192.173L293.906 192.151ZM272.906 192.175L272.936 211.162L252.936 211.185L252.906 192.197L272.906 192.175ZM251.906 192.198L251.936 211.186L231.936 211.208L231.906 192.221L251.906 192.198ZM230.906 192.222L230.936 211.209L210.936 211.232L210.906 192.244L230.906 192.222ZM209.906 192.246L209.936 211.233L189.936 211.256L189.906 192.268L209.906 192.246ZM188.906 192.269L188.936 211.257L168.936 211.279L168.906 192.292L188.906 192.269ZM167.906 192.293L167.936 211.28L147.936 211.303L147.906 192.315L167.906 192.293ZM146.906 192.317L146.936 211.304L126.936 211.327L126.906 192.339L146.906 192.317ZM125.906 192.34L125.936 211.328L105.936 211.35L105.906 192.363L125.906 192.34ZM104.906 192.364L104.936 211.351L84.936 211.374L84.9059 192.387L104.906 192.364ZM83.9059 192.388L83.936 211.375L63.936 211.398L63.906 192.41L83.9059 192.388ZM62.906 192.411L62.936 211.399L42.9361 211.421L42.906 192.434L62.906 192.411ZM41.906 192.435L41.9361 211.423L21.9361 211.445L21.906 192.458L41.906 192.435ZM21.9044 191.458L41.9044 191.435L41.8744 172.448L21.8744 172.47L21.9044 191.458ZM42.9044 191.434L62.9044 191.411L62.8743 172.424L42.8743 172.446L42.9044 191.434ZM63.9044 191.41L83.9043 191.388L83.8743 172.4L63.8743 172.423L63.9044 191.41ZM84.9043 191.387L104.904 191.364L104.874 172.376L84.8743 172.399L84.9043 191.387ZM105.904 191.363L125.904 191.34L125.874 172.353L105.874 172.375L105.904 191.363ZM126.904 191.339L146.904 191.317L146.874 172.329L126.874 172.352L126.904 191.339ZM147.904 191.315L167.904 191.293L167.874 172.305L147.874 172.328L147.904 191.315ZM168.904 191.292L188.904 191.269L188.874 172.282L168.874 172.304L168.904 191.292ZM189.904 191.268L209.904 191.246L209.874 172.258L189.874 172.281L189.904 191.268ZM210.904 191.244L230.904 191.222L230.874 172.234L210.874 172.257L210.904 191.244ZM231.904 191.221L251.904 191.198L251.874 172.211L231.874 172.233L231.904 191.221ZM252.904 191.197L272.904 191.175L272.874 172.187L252.874 172.21L252.904 191.197ZM273.904 191.173L293.904 191.151L293.874 172.163L273.874 172.186L273.904 191.173ZM294.904 191.15L314.879 191.127L314.853 172.14L294.874 172.162L294.904 191.15ZM315.879 191.126L336.862 191.102V172.115L315.853 172.139L315.879 191.126ZM336.862 152.127V171.115L315.851 171.139L315.825 152.151L336.862 152.127ZM314.825 152.152L314.851 171.14L294.872 171.162L294.842 152.175L314.825 152.152ZM293.842 152.176L293.872 171.163L273.872 171.186L273.842 152.198L293.842 152.176ZM272.842 152.2L272.872 171.187L252.872 171.21L252.842 152.222L272.842 152.2ZM251.842 152.223L251.872 171.211L231.872 171.233L231.842 152.246L251.842 152.223ZM230.842 152.247L230.872 171.234L210.872 171.257L210.842 152.269L230.842 152.247ZM209.842 152.271L209.872 171.258L189.873 171.281L189.842 152.293L209.842 152.271ZM188.842 152.294L188.873 171.282L168.873 171.304L168.842 152.317L188.842 152.294ZM167.842 152.318L167.873 171.305L147.873 171.328L147.843 152.34L167.842 152.318ZM146.843 152.342L146.873 171.329L126.873 171.352L126.843 152.364L146.843 152.342ZM125.843 152.365L125.873 171.353L105.873 171.375L105.843 152.388L125.843 152.365ZM104.843 152.389L104.873 171.376L84.8727 171.399L84.8426 152.412L104.843 152.389ZM83.8426 152.413L83.8727 171.4L63.8727 171.423L63.8427 152.435L83.8426 152.413ZM62.8427 152.436L62.8727 171.424L42.8728 171.446L42.8427 152.459L62.8427 152.436ZM41.8427 152.46L41.8728 171.448L21.8728 171.47L21.8427 152.483L41.8427 152.46ZM21.8412 151.483L41.8411 151.46L41.8111 132.473L21.8111 132.495L21.8412 151.483ZM42.8411 151.459L62.8411 151.436L62.811 132.449L42.8111 132.471L42.8411 151.459ZM63.8411 151.435L83.841 151.413L83.811 132.425L63.811 132.448L63.8411 151.435ZM84.841 151.412L104.841 151.389L104.811 132.402L84.811 132.424L84.841 151.412ZM105.841 151.388L125.841 151.365L125.811 132.378L105.811 132.4L105.841 151.388ZM126.841 151.364L146.841 151.342L146.811 132.354L126.811 132.377L126.841 151.364ZM147.841 151.341L167.841 151.318L167.811 132.33L147.811 132.353L147.841 151.341ZM168.841 151.317L188.841 151.294L188.811 132.307L168.811 132.329L168.841 151.317ZM189.841 151.293L209.841 151.271L209.811 132.283L189.811 132.306L189.841 151.293ZM210.841 151.269L230.841 151.247L230.811 132.259L210.811 132.282L210.841 151.269ZM231.841 151.246L251.841 151.223L251.811 132.236L231.811 132.258L231.841 151.246ZM252.841 151.222L272.841 151.2L272.811 132.212L252.811 132.235L252.841 151.222ZM273.841 151.198L293.841 151.176L293.811 132.188L273.811 132.211L273.841 151.198ZM294.841 151.175L314.824 151.152L314.798 132.165L294.811 132.187L294.841 151.175ZM315.824 151.151L336.862 151.127V132.14L315.798 132.164L315.824 151.151ZM336.862 112.152V131.14L315.796 131.164L315.77 112.176L336.862 112.152ZM314.77 112.177L314.796 131.165L294.809 131.187L294.779 112.2L314.77 112.177ZM293.779 112.201L293.809 131.188L273.809 131.211L273.779 112.223L293.779 112.201ZM272.779 112.225L272.809 131.212L252.809 131.235L252.779 112.247L272.779 112.225ZM251.779 112.248L251.809 131.236L231.809 131.258L231.779 112.271L251.779 112.248ZM230.779 112.272L230.809 131.259L210.809 131.282L210.779 112.294L230.779 112.272ZM209.779 112.296L209.809 131.283L189.809 131.306L189.779 112.318L209.779 112.296ZM188.779 112.319L188.809 131.307L168.809 131.329L168.779 112.342L188.779 112.319ZM167.779 112.343L167.809 131.33L147.809 131.353L147.779 112.366L167.779 112.343ZM146.779 112.367L146.809 131.354L126.809 131.377L126.779 112.389L146.779 112.367ZM125.779 112.39L125.809 131.378L105.809 131.4L105.779 112.413L125.779 112.39ZM104.779 112.414L104.809 131.402L84.8094 131.424L84.7793 112.437L104.779 112.414ZM83.7793 112.438L83.8094 131.425L63.8094 131.448L63.7794 112.46L83.7793 112.438ZM62.7794 112.461L62.8094 131.449L42.8095 131.471L42.7794 112.484L62.7794 112.461ZM41.7794 112.485L41.8095 131.473L21.8095 131.495L21.7795 112.508L41.7794 112.485ZM21.7779 111.508L41.7778 111.485L41.7478 92.4976L21.7478 92.5201L21.7779 111.508ZM42.7778 111.484L62.7778 111.461L62.7477 92.4739L42.7478 92.4964L42.7778 111.484ZM63.7778 111.46L83.7778 111.438L83.7477 92.4502L63.7477 92.4728L63.7778 111.46ZM84.7778 111.437L104.778 111.414L104.748 92.4265L84.7477 92.4491L84.7778 111.437ZM105.778 111.413L125.778 111.39L125.748 92.4028L105.748 92.4254L105.778 111.413ZM126.778 111.389L146.778 111.367L146.748 92.3792L126.748 92.4017L126.778 111.389ZM147.778 111.366L167.778 111.343L167.748 92.3555L147.748 92.378L147.778 111.366ZM168.778 111.342L188.778 111.319L188.748 92.3318L168.748 92.3544L168.778 111.342ZM189.778 111.318L209.778 111.296L209.747 92.3081L189.748 92.3307L189.778 111.318ZM210.778 111.294L230.777 111.272L230.747 92.2844L210.747 92.307L210.778 111.294ZM231.777 111.271L251.777 111.248L251.747 92.2607L231.747 92.2833L231.777 111.271ZM252.777 111.247L272.777 111.225L272.747 92.2371L252.747 92.2596L252.777 111.247ZM273.777 111.223L293.777 111.201L293.747 92.2134L273.747 92.2359L273.777 111.223ZM294.777 111.2L314.769 111.177L314.743 92.1897L294.747 92.2123L294.777 111.2ZM315.769 111.176L336.862 111.152V92.1648L315.743 92.1886L315.769 111.176ZM336.862 72.1772V91.1648L315.741 91.1886L315.715 72.2011L336.862 72.1772ZM314.715 72.2022L314.741 91.1897L294.746 91.2123L294.716 72.2248L314.715 72.2022ZM293.716 72.2259L293.746 91.2134L273.746 91.2359L273.716 72.2485L293.716 72.2259ZM272.716 72.2496L272.746 91.2371L252.746 91.2596L252.716 72.2721L272.716 72.2496ZM251.716 72.2733L251.746 91.2607L231.746 91.2833L231.716 72.2958L251.716 72.2733ZM230.716 72.2969L230.746 91.2844L210.746 91.307L210.716 72.3195L230.716 72.2969ZM209.716 72.3206L209.746 91.3081L189.746 91.3307L189.716 72.3432L209.716 72.3206ZM188.716 72.3443L188.746 91.3318L168.746 91.3544L168.716 72.3669L188.716 72.3443ZM167.716 72.368L167.746 91.3555L147.746 91.378L147.716 72.3905L167.716 72.368ZM146.716 72.3917L146.746 91.3792L126.746 91.4017L126.716 72.4142L146.716 72.3917ZM125.716 72.4153L125.746 91.4028L105.746 91.4254L105.716 72.4379L125.716 72.4153ZM104.716 72.439L104.746 91.4265L84.7461 91.4491L84.716 72.4616L104.716 72.439ZM83.716 72.4627L83.7461 91.4502L63.7461 91.4728L63.7161 72.4853L83.716 72.4627ZM62.7161 72.4864L62.7461 91.4739L42.7462 91.4964L42.7161 72.5089L62.7161 72.4864ZM41.7161 72.5101L41.7462 91.4976L21.7462 91.5201L21.7162 72.5326L41.7161 72.5101ZM21.7146 71.5326L41.7145 71.5101L41.6845 52.5226L21.6845 52.5451L21.7146 71.5326ZM42.7145 71.5089L62.7145 71.4864L62.6844 52.4989L42.6845 52.5215L42.7145 71.5089ZM63.7145 71.4853L83.7145 71.4627L83.6844 52.4752L63.6844 52.4978L63.7145 71.4853ZM84.7145 71.4616L104.714 71.439L104.684 52.4515L84.6844 52.4741L84.7145 71.4616ZM105.714 71.4379L125.714 71.4154L125.684 52.4279L105.684 52.4504L105.714 71.4379ZM126.714 71.4142L146.714 71.3917L146.684 52.4042L126.684 52.4267L126.714 71.4142ZM147.714 71.3905L167.714 71.368L167.684 52.3805L147.684 52.403L147.714 71.3905ZM168.714 71.3669L188.714 71.3443L188.684 52.3568L168.684 52.3794L168.714 71.3669ZM189.714 71.3432L209.714 71.3206L209.684 52.3331L189.684 52.3557L189.714 71.3432ZM210.714 71.3195L230.714 71.2969L230.684 52.3094L210.684 52.332L210.714 71.3195ZM231.714 71.2958L251.714 71.2733L251.684 52.2858L231.684 52.3083L231.714 71.2958ZM252.714 71.2721L272.714 71.2496L272.684 52.2621L252.684 52.2846L252.714 71.2721ZM273.714 71.2485L293.714 71.2259L293.684 52.2384L273.684 52.261L273.714 71.2485ZM294.714 71.2248L314.714 71.2022L314.688 52.2147L294.684 52.2373L294.714 71.2248ZM315.714 71.2011L336.862 71.1772V52.1897L315.688 52.2136L315.714 71.2011ZM336.862 32.2022V51.1897L315.686 51.2136L315.66 32.2261L336.862 32.2022ZM314.66 32.2272L314.686 51.2147L294.682 51.2373L294.652 32.2498L314.66 32.2272ZM293.652 32.2509L293.682 51.2384L273.682 51.261L273.652 32.2735L293.652 32.2509ZM272.652 32.2746L272.682 51.2621L252.683 51.2846L252.652 32.2971L272.652 32.2746ZM251.652 32.2983L251.683 51.2858L231.683 51.3083L231.652 32.3208L251.652 32.2983ZM230.652 32.322L230.683 51.3094L210.683 51.332L210.653 32.3445L230.652 32.322ZM209.653 32.3456L209.683 51.3331L189.683 51.3557L189.653 32.3682L209.653 32.3456ZM188.653 32.3693L188.683 51.3568L168.683 51.3794L168.653 32.3919L188.653 32.3693ZM167.653 32.393L167.683 51.3805L147.683 51.403L147.653 32.4156L167.653 32.393ZM146.653 32.4167L146.683 51.4042L126.683 51.4267L126.653 32.4392L146.653 32.4167ZM125.653 32.4404L125.683 51.4279L105.683 51.4504L105.653 32.4629L125.653 32.4404ZM104.653 32.464L104.683 51.4515L84.6828 51.4741L84.6528 32.4866L104.653 32.464ZM83.6528 32.4877L83.6828 51.4752L63.6829 51.4978L63.6528 32.5103L83.6528 32.4877ZM62.6528 32.5114L62.6829 51.4989L42.6829 51.5215L42.6528 32.534L62.6528 32.5114ZM41.6528 32.5351L41.6829 51.5226L21.6829 51.5451L21.6529 32.5576L41.6528 32.5351ZM336.862 31.2022V12.2158L315.633 12.241L315.659 31.2261L336.862 31.2022Z" fill="url(#paint0_angular_645_1812)"/>
<defs>
<filter id="filter0_f_645_1812" x="145.602" y="53.7842" width="241.6" height="229.884" filterUnits="userSpaceOnUse" color-interpolation-filters="sRGB">
<feFlood flood-opacity="0" result="BackgroundImageFix"/>
<feBlend mode="normal" in="SourceGraphic" in2="BackgroundImageFix" result="shape"/>
<feGaussianBlur stdDeviation="40.4" result="effect1_foregroundBlur_645_1812"/>
</filter>
<filter id="filter1_f_645_1812" x="-40.3803" y="7.28667" width="258.925" height="240.223" filterUnits="userSpaceOnUse" color-interpolation-filters="sRGB">
<feFlood flood-opacity="0" result="BackgroundImageFix"/>
<feBlend mode="normal" in="SourceGraphic" in2="BackgroundImageFix" result="shape"/>
<feGaussianBlur stdDeviation="40.4" result="effect1_foregroundBlur_645_1812"/>
</filter>
<filter id="filter2_b_645_1812" x="-6.94844" y="-7.06172" width="370.6" height="266.482" filterUnits="userSpaceOnUse" color-interpolation-filters="sRGB">
<feFlood flood-opacity="0" result="BackgroundImageFix"/>
<feGaussianBlur in="BackgroundImageFix" stdDeviation="3.9"/>
<feComposite in2="SourceAlpha" operator="in" result="effect1_backgroundBlur_645_1812"/>
<feBlend mode="normal" in="SourceGraphic" in2="effect1_backgroundBlur_645_1812" result="shape"/>
</filter>
<radialGradient id="paint0_angular_645_1812" cx="0" cy="0" r="1" gradientUnits="userSpaceOnUse" gradientTransform="translate(178.354 126.179) rotate(90) scale(125.441 177.501)">
<stop stop-color="#9A5656"/>
<stop offset="0.604" stop-color="#581976"/>
</radialGradient>
</defs>
</svg>
