<svg width="23" height="22" viewBox="0 0 23 22" fill="none" xmlns="http://www.w3.org/2000/svg">
<path d="M6.16025 3.01627V3.01627C4.68566 3.01626 3.49026 4.21166 3.49026 5.68626L3.49026 7.5934C3.49026 7.89077 3.49026 8.03946 3.55846 8.14801C3.59403 8.20462 3.6419 8.25248 3.6985 8.28805C3.80705 8.35626 3.95574 8.35626 4.25311 8.35626L8.83026 8.35626M6.16025 3.01627V3.01627C7.63486 3.01626 8.83026 4.21166 8.83026 5.68626L8.83026 8.35626M6.16025 3.01627L15.9503 3.01626C17.6285 3.01626 18.4676 3.01626 18.9889 3.53761C19.5103 4.05896 19.5103 4.89806 19.5103 6.57626L19.5103 19.0363L16.8403 18.1463L14.1703 19.0363L11.5003 18.1463L8.83025 19.0363L8.83026 8.35626" stroke="#FF6565" stroke-width="0.89"/>
<path d="M15.9502 6.57629L12.3902 6.57629" stroke="#FF6565" stroke-width="0.89" stroke-linecap="round"/>
<path d="M15.0603 10.1363H15.9503" stroke="#FF6565" stroke-width="0.89" stroke-linecap="round"/>
<path d="M15.9502 13.6964L13.2802 13.6964" stroke="#FF6565" stroke-width="0.89" stroke-linecap="round"/>
</svg>
