<svg width="24" height="25" viewBox="0 0 24 25" fill="none" xmlns="http://www.w3.org/2000/svg">
<g clip-path="url(#clip0_645_2102)">
<path d="M18.92 6.03649C18.72 5.44649 18.16 5.02649 17.5 5.02649H6.5C5.84 5.02649 5.29 5.44649 5.08 6.03649L3 12.0265V20.0265C3 20.5765 3.45 21.0265 4 21.0265H5C5.55 21.0265 6 20.5765 6 20.0265V19.0265H18V20.0265C18 20.5765 18.45 21.0265 19 21.0265H20C20.55 21.0265 21 20.5765 21 20.0265V12.0265L18.92 6.03649ZM6.5 16.0265C5.67 16.0265 5 15.3565 5 14.5265C5 13.6965 5.67 13.0265 6.5 13.0265C7.33 13.0265 8 13.6965 8 14.5265C8 15.3565 7.33 16.0265 6.5 16.0265ZM17.5 16.0265C16.67 16.0265 16 15.3565 16 14.5265C16 13.6965 16.67 13.0265 17.5 13.0265C18.33 13.0265 19 13.6965 19 14.5265C19 15.3565 18.33 16.0265 17.5 16.0265ZM5 11.0265L6.5 6.52649H17.5L19 11.0265H5Z" fill="#FF6565"/>
<path d="M15.6074 9.45744L17.398 10.8004C17.6354 10.9785 17.971 10.9378 18.159 10.7081L22.8074 5.02667" stroke="#EDF9FA" stroke-width="1.10769" stroke-linecap="round"/>
</g>
<defs>
<clipPath id="clip0_645_2102">
<rect width="24" height="24" fill="white" transform="translate(0 0.0264893)"/>
</clipPath>
</defs>
</svg>
