<svg width="1841" height="1200" viewBox="0 0 1841 1200" fill="none" xmlns="http://www.w3.org/2000/svg">
<path fill-rule="evenodd" clip-rule="evenodd" d="M0.78418 1200L0.78418 0.00012207L4.55814 0.000732422L4.55814 1200L0.78418 1200ZM92.065 1200L88.291 1200L88.291 0.00012207L92.065 0.00158691L92.065 1200ZM175.711 1200L175.711 0.00012207L179.485 0.00158691L179.485 1200L175.711 1200ZM263.126 0.00012207L263.126 1200L266.9 1200L266.9 0.00146484L263.126 0.00012207ZM350.546 1200L350.546 0.00012207L354.32 0.00146484L354.32 1200L350.546 1200ZM437.97 0.00012207L437.97 1200L441.743 1200L441.743 0.00158691L437.97 0.00012207ZM525.384 1200L525.384 0L529.158 0.00134277L529.158 1200L525.384 1200ZM612.805 0.00012207L612.805 1200L616.579 1200L616.579 0.00146484L612.805 0.00012207ZM700.23 1200L700.23 0.00012207L704.004 0.00158691L704.004 1200L700.23 1200ZM787.648 0.000244141L787.648 1200L791.422 1200L791.422 0.00158691L787.648 0.000244141ZM875.065 1200L875.065 0.00012207L878.839 0.00146484L878.839 1200L875.065 1200ZM962.487 0.000244141L962.487 1200L966.261 1200L966.261 0.00158691L962.487 0.000244141ZM1049.91 1200L1049.91 0.00012207L1053.68 0.00158691L1053.68 1200L1049.91 1200ZM1137.32 0.00012207L1137.32 1200L1141.1 1200L1141.1 0.00146484L1137.32 0.00012207ZM1224.74 1200L1224.74 0.00012207L1228.51 0.00146484L1228.51 1200L1224.74 1200ZM1312.16 0.00012207L1312.16 1200L1315.94 1200L1315.94 0.00146484L1312.16 0.00012207ZM1399.58 1200L1399.58 0.000610352L1403.35 0.00195313L1403.35 1200L1399.58 1200ZM1487 0.000854492L1487 1200L1490.77 1200L1490.77 0.00183105L1487 0.000854492ZM1574.42 1200L1574.42 0.00134277L1578.19 0.00244141L1578.19 1200L1574.42 1200ZM1661.84 0.00183105L1661.84 1200L1665.61 1200L1665.61 0.00305176L1661.84 0.00183105ZM1749.25 1200L1749.25 0.00244141L1753.03 0.00366211L1753.03 1200L1749.25 1200ZM1836.66 0.00231934L1836.66 1200L1840.44 1200L1840.44 0.00354004L1836.66 0.00231934Z" fill="#161F36"/>
</svg>
