<svg width="1920" height="1200" viewBox="0 0 1920 1200" fill="none" xmlns="http://www.w3.org/2000/svg">
<line x1="-0.00600756" y1="1198.11" x2="1919.99" y2="1195.97" stroke="#161F36" stroke-width="3.77396"/>
<line y1="-1.88698" x2="1920" y2="-1.88698" transform="matrix(0.999999 -0.00112206 0.00110517 0.999999 -0.00390625 1120.14)" stroke="#161F36" stroke-width="3.77396"/>
<line y1="-1.88698" x2="1920" y2="-1.88698" transform="matrix(0.999999 -0.00112206 0.00110517 0.999999 -0.00390625 1120.14)" stroke="#161F36" stroke-width="3.77396"/>
<line y1="-1.88698" x2="1920" y2="-1.88698" transform="matrix(0.999999 -0.00112206 0.00110517 0.999999 -0.00390625 1040.29)" stroke="#161F36" stroke-width="3.77396"/>
<line y1="-1.88698" x2="1920" y2="-1.88698" transform="matrix(0.999999 -0.00112206 0.00110517 0.999999 -0.00292969 960.431)" stroke="#161F36" stroke-width="3.77396"/>
<line y1="-1.88698" x2="1920" y2="-1.88698" transform="matrix(0.999999 -0.00112206 0.00110517 0.999999 -0.00292969 880.574)" stroke="#161F36" stroke-width="3.77396"/>
<line y1="-1.88698" x2="1920" y2="-1.88698" transform="matrix(0.999999 -0.00112206 0.00110517 0.999999 -0.00292969 800.717)" stroke="#161F36" stroke-width="3.77396"/>
<line y1="-1.88698" x2="1920" y2="-1.88698" transform="matrix(0.999999 -0.00112206 0.00110517 0.999999 -0.00390625 720.861)" stroke="#161F36" stroke-width="3.77396"/>
<line y1="-1.88698" x2="1920" y2="-1.88698" transform="matrix(0.999999 -0.00112206 0.00110517 0.999999 -0.00292969 641.006)" stroke="#161F36" stroke-width="3.77396"/>
<line y1="-1.88698" x2="1920" y2="-1.88698" transform="matrix(0.999999 -0.00112206 0.00110517 0.999999 -0.00390625 561.149)" stroke="#161F36" stroke-width="3.77396"/>
<line y1="-1.88698" x2="1920" y2="-1.88698" transform="matrix(0.999999 -0.00112206 0.00110517 0.999999 -0.00390625 481.292)" stroke="#161F36" stroke-width="3.77396"/>
<line y1="-1.88698" x2="1920" y2="-1.88698" transform="matrix(0.999999 -0.00112206 0.00110517 0.999999 -0.00292969 401.436)" stroke="#161F36" stroke-width="3.77396"/>
<line y1="-1.88698" x2="1920" y2="-1.88698" transform="matrix(0.999999 -0.00112206 0.00110517 0.999999 -0.00390625 321.581)" stroke="#161F36" stroke-width="3.77396"/>
<line y1="-1.88698" x2="1920" y2="-1.88698" transform="matrix(0.999999 -0.00112206 0.00110517 0.999999 -0.00292969 241.723)" stroke="#161F36" stroke-width="3.77396"/>
<line y1="-1.88698" x2="1920" y2="-1.88698" transform="matrix(0.999999 -0.00112206 0.00110517 0.999999 -0.00390625 161.866)" stroke="#161F36" stroke-width="3.77396"/>
<line y1="-1.88698" x2="1920" y2="-1.88698" transform="matrix(0.999999 -0.00112206 0.00110517 0.999999 -0.00292969 82.009)" stroke="#161F36" stroke-width="3.77396"/>
<line y1="-1.88698" x2="1920" y2="-1.88698" transform="matrix(0.999999 -0.00112206 0.00110517 0.999999 -0.00292969 2.1543)" stroke="#161F36" stroke-width="3.77396"/>
</svg>
