<svg width="355" height="506" viewBox="0 0 355 506" fill="none" xmlns="http://www.w3.org/2000/svg">
<path fill-rule="evenodd" clip-rule="evenodd" d="M20.0396 35.6469L20.0644 57.8893L-0.000180662 57.9155L0.000766677 58.9155L20.0655 58.8893L20.0902 81.09L-0.000180662 81.1163L0.000766677 82.1163L20.0913 82.09L20.116 104.291L-0.000180662 104.317L0.000766677 105.317L20.1171 105.291L20.1419 127.492L-0.000180662 127.518L0.000766677 128.518L20.143 128.492L20.1677 150.692L-0.000180662 150.719L0.000766677 151.719L20.1688 151.692L20.1935 173.893L-0.000180662 173.92L0.000766677 174.92L20.1947 174.893L20.2194 197.094L-0.000180662 197.12L0.000766677 198.12L20.2205 198.094L20.2452 220.295L-0.000180662 220.321L0.000766677 221.321L20.2463 221.295L20.2711 243.496L-0.000180662 243.522L0.000766677 244.522L20.2722 244.496L20.2969 266.696L-0.000180662 266.723L0.000766677 267.723L20.298 267.696L20.3227 289.897L-0.000180662 289.924L0.000766677 290.924L20.3238 290.897L20.3486 313.098L-0.000180662 313.124L0.000766677 314.124L20.3497 314.098L20.3744 336.299L-0.000180662 336.325L0.000766677 337.325L20.3755 337.299L20.4002 359.499L-0.000180662 359.526L0.000766677 360.526L20.4013 360.499L20.4261 382.7L-0.000180662 382.727L0.000766677 383.727L20.4272 383.7L20.5634 506L21.5634 505.999L21.4272 383.699L41.4272 383.673L41.5634 506L42.5634 505.999L42.4272 383.671L62.4271 383.645L62.5634 506L63.5634 505.999L63.4271 383.644L83.4271 383.618L83.5634 506L84.5634 505.999L84.4271 383.616L104.427 383.59L104.563 506L105.563 505.999L105.427 383.589L125.427 383.563L125.563 506L126.563 505.999L126.427 383.561L146.427 383.535L146.563 506L147.563 505.999L147.427 383.534L167.427 383.508L167.563 506L168.563 505.999L168.427 383.506L188.427 383.48L188.563 506L189.563 505.999L189.427 383.479L209.427 383.453L209.563 506L210.563 505.999L210.427 383.451L230.427 383.425L230.563 506L231.563 505.999L231.427 383.424L251.427 383.398L251.563 506L252.563 505.999L252.427 383.397L272.427 383.37L272.563 506L273.563 505.999L273.427 383.369L293.427 383.343L293.563 506L294.563 505.999L294.427 383.342L314.427 383.315L314.563 506L315.563 505.999L315.427 383.314L335.427 383.288L335.563 506L336.563 505.999L336.427 383.287L355.001 383.262L355 382.262L336.426 382.287L336.401 360.086L355.001 360.061L355 359.061L336.4 359.086L336.375 336.885L355.001 336.861L355 335.861L336.374 335.885L336.349 313.684L355.001 313.66L355 312.66L336.348 312.684L336.323 290.483L355.001 290.459L355 289.459L336.322 289.483L336.298 267.283L355.001 267.258L355 266.258L336.296 266.283L336.272 244.082L355.001 244.057L355 243.057L336.271 243.082L336.246 220.881L355.001 220.857L355 219.857L336.245 219.881L336.22 197.68L355.001 197.656L355 196.656L336.219 196.68L336.194 174.48L355.001 174.455L355 173.455L336.193 173.48L336.168 151.279L355.001 151.254L355 150.254L336.167 150.279L336.143 128.078L355.001 128.053L355 127.053L336.141 127.078L336.117 104.877L355.001 104.852L355 103.852L336.116 103.877L336.091 81.6764L355.001 81.6516L355 80.6516L336.09 80.6764L336.065 58.4756L355.001 58.4508L355 57.4508L336.064 57.4756L336.039 35.2725L355.001 35.25L355 34.25L336.038 34.2725L336 0L335 0.00111389L335.038 34.2737L315.038 34.2974L315 0L314 0.00111389L314.038 34.2986L294.038 34.3223L294 0L293 0.00111389L293.038 34.3234L273.038 34.3471L273 0L272 0.00111389L272.038 34.3483L252.038 34.372L252 0L251 0.00111389L251.038 34.3732L231.038 34.3969L231 0L230 0.00111389L230.038 34.3981L210.038 34.4218L210 0L209 0.00111389L209.038 34.423L189.038 34.4467L189 0L188 0.00111389L188.038 34.4479L168.038 34.4716L168 0L167 0.00111389L167.038 34.4727L147.038 34.4964L147 0L146 0.00111389L146.038 34.4976L126.038 34.5213L126 0L125 0.00111389L125.038 34.5225L105.038 34.5462L105 0L104 0.00111389L104.038 34.5474L84.0384 34.5711L83.9999 0L82.9999 0.00111389L83.0384 34.5723L63.0384 34.596L62.9999 0L61.9999 0.00111389L62.0384 34.5971L42.0385 34.6208L41.9999 0L40.9999 0.00111389L41.0385 34.622L21.0385 34.6457L20.9999 0L19.9999 0.00111389L20.0385 34.6469L-0.000244141 34.6707L0.000802479 35.6707L20.0396 35.6469ZM335.426 382.288L335.401 360.087L315.401 360.113L315.426 382.314L335.426 382.288ZM314.426 382.315L314.401 360.115L294.401 360.141L294.426 382.342L314.426 382.315ZM293.426 382.343L293.401 360.142L273.401 360.168L273.426 382.369L293.426 382.343ZM272.426 382.37L272.401 360.17L252.401 360.196L252.426 382.397L272.426 382.37ZM251.426 382.398L251.401 360.197L231.401 360.223L231.426 382.424L251.426 382.398ZM230.426 382.425L230.401 360.224L210.401 360.251L210.426 382.451L230.426 382.425ZM209.426 382.453L209.401 360.252L189.401 360.278L189.426 382.479L209.426 382.453ZM188.426 382.48L188.401 360.279L168.401 360.306L168.426 382.506L188.426 382.48ZM167.426 382.508L167.401 360.307L147.401 360.333L147.426 382.534L167.426 382.508ZM146.426 382.535L146.401 360.334L126.401 360.361L126.426 382.561L146.426 382.535ZM125.426 382.563L125.401 360.362L105.401 360.388L105.426 382.589L125.426 382.563ZM104.426 382.59L104.401 360.389L84.4012 360.416L84.426 382.616L104.426 382.59ZM83.426 382.618L83.4012 360.417L63.4013 360.443L63.426 382.644L83.426 382.618ZM62.426 382.645L62.4013 360.444L42.4013 360.471L42.426 382.671L62.426 382.645ZM41.426 382.673L41.4013 360.472L21.4013 360.498L21.4261 382.699L41.426 382.673ZM41.4002 359.472L21.4002 359.498L21.3755 337.297L41.3755 337.271L41.4002 359.472ZM62.4002 359.444L42.4002 359.471L42.3755 337.27L62.3755 337.244L62.4002 359.444ZM83.4001 359.417L63.4002 359.443L63.3755 337.242L83.3754 337.216L83.4001 359.417ZM104.4 359.389L84.4001 359.416L84.3754 337.215L104.375 337.189L104.4 359.389ZM125.4 359.362L105.4 359.388L105.375 337.187L125.375 337.161L125.4 359.362ZM146.4 359.334L126.4 359.361L126.375 337.16L146.375 337.134L146.4 359.334ZM167.4 359.307L147.4 359.333L147.375 337.132L167.375 337.106L167.4 359.307ZM188.4 359.279L168.4 359.306L168.375 337.105L188.375 337.079L188.4 359.279ZM209.4 359.252L189.4 359.278L189.375 337.077L209.375 337.051L209.4 359.252ZM230.4 359.224L210.4 359.251L210.375 337.05L230.375 337.024L230.4 359.224ZM251.4 359.197L231.4 359.223L231.375 337.022L251.375 336.996L251.4 359.197ZM272.4 359.17L252.4 359.196L252.375 336.995L272.375 336.969L272.4 359.17ZM293.4 359.142L273.4 359.168L273.375 336.967L293.375 336.941L293.4 359.142ZM314.4 359.115L294.4 359.141L294.375 336.94L314.375 336.914L314.4 359.115ZM335.4 359.087L315.4 359.113L315.375 336.912L335.375 336.886L335.4 359.087ZM335.374 335.886L335.349 313.686L315.349 313.712L315.374 335.912L335.374 335.886ZM314.374 335.914L314.349 313.713L294.349 313.739L294.374 335.94L314.374 335.914ZM293.374 335.941L293.349 313.74L273.349 313.767L273.374 335.967L293.374 335.941ZM272.374 335.969L272.349 313.768L252.349 313.794L252.374 335.995L272.374 335.969ZM251.374 335.996L251.349 313.795L231.349 313.822L231.374 336.022L251.374 335.996ZM230.374 336.024L230.349 313.823L210.349 313.849L210.374 336.05L230.374 336.024ZM209.374 336.051L209.349 313.85L189.349 313.877L189.374 336.077L209.374 336.051ZM188.374 336.079L188.349 313.878L168.349 313.904L168.374 336.105L188.374 336.079ZM167.374 336.106L167.349 313.905L147.349 313.932L147.374 336.132L167.374 336.106ZM146.374 336.134L146.349 313.933L126.35 313.959L126.374 336.16L146.374 336.134ZM125.374 336.161L125.35 313.96L105.35 313.987L105.374 336.187L125.374 336.161ZM104.374 336.189L104.35 313.988L84.3496 314.014L84.3743 336.215L104.374 336.189ZM83.3743 336.216L83.3496 314.015L63.3496 314.042L63.3743 336.242L83.3743 336.216ZM62.3743 336.244L62.3496 314.043L42.3497 314.069L42.3744 336.27L62.3743 336.244ZM41.3744 336.271L41.3497 314.07L21.3497 314.097L21.3744 336.297L41.3744 336.271ZM41.3485 313.07L21.3486 313.097L21.3238 290.896L41.3238 290.87L41.3485 313.07ZM62.3485 313.043L42.3485 313.069L42.3238 290.868L62.3238 290.842L62.3485 313.043ZM83.3485 313.015L63.3485 313.042L63.3238 290.841L83.3237 290.815L83.3485 313.015ZM104.348 312.988L84.3485 313.014L84.3237 290.813L104.324 290.787L104.348 312.988ZM125.348 312.96L105.348 312.987L105.324 290.786L125.324 290.76L125.348 312.96ZM146.348 312.933L126.348 312.959L126.324 290.758L146.324 290.732L146.348 312.933ZM167.348 312.905L147.348 312.932L147.324 290.731L167.324 290.705L167.348 312.905ZM188.348 312.878L168.348 312.904L168.324 290.703L188.324 290.677L188.348 312.878ZM209.348 312.85L189.348 312.877L189.324 290.676L209.324 290.65L209.348 312.85ZM230.348 312.823L210.348 312.849L210.324 290.648L230.324 290.622L230.348 312.823ZM251.348 312.795L231.348 312.822L231.324 290.621L251.323 290.595L251.348 312.795ZM272.348 312.768L252.348 312.794L252.323 290.593L272.323 290.567L272.348 312.768ZM293.348 312.74L273.348 312.767L273.323 290.566L293.323 290.54L293.348 312.74ZM314.348 312.713L294.348 312.739L294.323 290.538L314.323 290.512L314.348 312.713ZM335.348 312.686L315.348 312.712L315.323 290.511L335.323 290.485L335.348 312.686ZM335.322 289.485L335.298 267.284L315.298 267.31L315.322 289.511L335.322 289.485ZM314.322 289.512L314.298 267.311L294.298 267.338L294.322 289.538L314.322 289.512ZM293.322 289.54L293.298 267.339L273.298 267.365L273.322 289.566L293.322 289.54ZM272.322 289.567L272.298 267.366L252.298 267.393L252.322 289.593L272.322 289.567ZM251.322 289.595L251.298 267.394L231.298 267.42L231.322 289.621L251.322 289.595ZM230.322 289.622L230.298 267.421L210.298 267.448L210.322 289.648L230.322 289.622ZM209.322 289.65L209.298 267.449L189.298 267.475L189.322 289.676L209.322 289.65ZM188.322 289.677L188.298 267.476L168.298 267.503L168.322 289.703L188.322 289.677ZM167.322 289.705L167.298 267.504L147.298 267.53L147.323 289.731L167.322 289.705ZM146.323 289.732L146.298 267.531L126.298 267.558L126.323 289.758L146.323 289.732ZM125.323 289.76L125.298 267.559L105.298 267.585L105.323 289.786L125.323 289.76ZM104.323 289.787L104.298 267.586L84.2979 267.612L84.3226 289.813L104.323 289.787ZM83.3226 289.815L83.2979 267.614L63.2979 267.64L63.3227 289.841L83.3226 289.815ZM62.3227 289.842L62.2979 267.641L42.298 267.667L42.3227 289.868L62.3227 289.842ZM41.3227 289.87L41.298 267.669L21.298 267.695L21.3227 289.896L41.3227 289.87ZM41.2969 266.669L21.2969 266.695L21.2722 244.494L41.2721 244.468L41.2969 266.669ZM62.2968 266.641L42.2969 266.667L42.2721 244.467L62.2721 244.441L62.2968 266.641ZM83.2968 266.614L63.2968 266.64L63.2721 244.439L83.2721 244.413L83.2968 266.614ZM104.297 266.586L84.2968 266.612L84.2721 244.412L104.272 244.386L104.297 266.586ZM125.297 266.559L105.297 266.585L105.272 244.384L125.272 244.358L125.297 266.559ZM146.297 266.531L126.297 266.558L126.272 244.357L146.272 244.331L146.297 266.531ZM167.297 266.504L147.297 266.53L147.272 244.329L167.272 244.303L167.297 266.504ZM188.297 266.476L168.297 266.503L168.272 244.302L188.272 244.276L188.297 266.476ZM209.297 266.449L189.297 266.475L189.272 244.274L209.272 244.248L209.297 266.449ZM230.297 266.421L210.297 266.448L210.272 244.247L230.272 244.221L230.297 266.421ZM251.297 266.394L231.297 266.42L231.272 244.219L251.272 244.193L251.297 266.394ZM272.297 266.366L252.297 266.393L252.272 244.192L272.272 244.166L272.297 266.366ZM293.297 266.339L273.297 266.365L273.272 244.164L293.272 244.138L293.297 266.339ZM314.296 266.311L294.297 266.338L294.272 244.137L314.272 244.111L314.296 266.311ZM335.296 266.284L315.296 266.31L315.272 244.109L335.272 244.083L335.296 266.284ZM335.271 243.083L335.246 220.882L315.246 220.909L315.271 243.109L335.271 243.083ZM314.271 243.111L314.246 220.91L294.246 220.936L294.271 243.137L314.271 243.111ZM293.271 243.138L293.246 220.937L273.246 220.964L273.271 243.164L293.271 243.138ZM272.271 243.166L272.246 220.965L252.246 220.991L252.271 243.192L272.271 243.166ZM251.271 243.193L251.246 220.992L231.246 221.019L231.271 243.219L251.271 243.193ZM230.271 243.221L230.246 221.02L210.246 221.046L210.271 243.247L230.271 243.221ZM209.271 243.248L209.246 221.047L189.246 221.074L189.271 243.274L209.271 243.248ZM188.271 243.276L188.246 221.075L168.246 221.101L168.271 243.302L188.271 243.276ZM167.271 243.303L167.246 221.102L147.246 221.128L147.271 243.329L167.271 243.303ZM146.271 243.331L146.246 221.13L126.246 221.156L126.271 243.357L146.271 243.331ZM125.271 243.358L125.246 221.157L105.246 221.183L105.271 243.384L125.271 243.358ZM104.271 243.386L104.246 221.185L84.2462 221.211L84.271 243.412L104.271 243.386ZM83.271 243.413L83.2462 221.212L63.2463 221.238L63.271 243.439L83.271 243.413ZM62.271 243.441L62.2463 221.24L42.2463 221.266L42.271 243.467L62.271 243.441ZM41.271 243.468L41.2463 221.267L21.2463 221.293L21.2711 243.494L41.271 243.468ZM41.2452 220.267L21.2452 220.293L21.2205 198.093L41.2205 198.066L41.2452 220.267ZM62.2452 220.24L42.2452 220.266L42.2205 198.065L62.2204 198.039L62.2452 220.24ZM83.2451 220.212L63.2452 220.238L63.2204 198.038L83.2204 198.011L83.2451 220.212ZM104.245 220.185L84.2451 220.211L84.2204 198.01L104.22 197.984L104.245 220.185ZM125.245 220.157L105.245 220.183L105.22 197.983L125.22 197.957L125.245 220.157ZM146.245 220.13L126.245 220.156L126.22 197.955L146.22 197.929L146.245 220.13ZM167.245 220.102L147.245 220.128L147.22 197.928L167.22 197.902L167.245 220.102ZM188.245 220.075L168.245 220.101L168.22 197.9L188.22 197.874L188.245 220.075ZM209.245 220.047L189.245 220.074L189.22 197.873L209.22 197.847L209.245 220.047ZM230.245 220.02L210.245 220.046L210.22 197.845L230.22 197.819L230.245 220.02ZM251.245 219.992L231.245 220.019L231.22 197.818L251.22 197.792L251.245 219.992ZM272.245 219.965L252.245 219.991L252.22 197.79L272.22 197.764L272.245 219.965ZM293.245 219.937L273.245 219.964L273.22 197.763L293.22 197.737L293.245 219.937ZM314.245 219.91L294.245 219.936L294.22 197.735L314.22 197.709L314.245 219.91ZM335.245 219.882L315.245 219.909L315.22 197.708L335.22 197.682L335.245 219.882ZM335.219 196.682L335.194 174.481L315.194 174.507L315.219 196.708L335.219 196.682ZM314.219 196.709L314.194 174.508L294.194 174.535L294.219 196.735L314.219 196.709ZM293.219 196.737L293.194 174.536L273.194 174.562L273.219 196.763L293.219 196.737ZM272.219 196.764L272.194 174.563L252.194 174.589L252.219 196.79L272.219 196.764ZM251.219 196.792L251.194 174.591L231.194 174.617L231.219 196.818L251.219 196.792ZM230.219 196.819L230.194 174.618L210.194 174.644L210.219 196.845L230.219 196.819ZM209.219 196.847L209.194 174.646L189.194 174.672L189.219 196.873L209.219 196.847ZM188.219 196.874L188.194 174.673L168.194 174.699L168.219 196.9L188.219 196.874ZM167.219 196.902L167.194 174.701L147.194 174.727L147.219 196.928L167.219 196.902ZM146.219 196.929L146.194 174.728L126.194 174.754L126.219 196.955L146.219 196.929ZM125.219 196.957L125.194 174.756L105.195 174.782L105.219 196.983L125.219 196.957ZM104.219 196.984L104.195 174.783L84.1945 174.809L84.2193 197.01L104.219 196.984ZM83.2193 197.011L83.1945 174.811L63.1946 174.837L63.2193 197.038L83.2193 197.011ZM62.2193 197.039L62.1946 174.838L42.1946 174.864L42.2194 197.065L62.2193 197.039ZM41.2194 197.066L41.1946 174.866L21.1947 174.892L21.2194 197.093L41.2194 197.066ZM41.1935 173.866L21.1935 173.892L21.1688 151.691L41.1688 151.665L41.1935 173.866ZM62.1935 173.838L42.1935 173.864L42.1688 151.664L62.1688 151.637L62.1935 173.838ZM83.1934 173.811L63.1935 173.837L63.1688 151.636L83.1687 151.61L83.1934 173.811ZM104.193 173.783L84.1934 173.809L84.1687 151.609L104.169 151.582L104.193 173.783ZM125.193 173.756L105.193 173.782L105.169 151.581L125.169 151.555L125.193 173.756ZM146.193 173.728L126.193 173.754L126.169 151.554L146.169 151.527L146.193 173.728ZM167.193 173.701L147.193 173.727L147.169 151.526L167.169 151.5L167.193 173.701ZM188.193 173.673L168.193 173.699L168.169 151.499L188.169 151.472L188.193 173.673ZM209.193 173.646L189.193 173.672L189.169 151.471L209.169 151.445L209.193 173.646ZM230.193 173.618L210.193 173.644L210.169 151.444L230.169 151.417L230.193 173.618ZM251.193 173.591L231.193 173.617L231.169 151.416L251.168 151.39L251.193 173.591ZM272.193 173.563L252.193 173.589L252.168 151.389L272.168 151.363L272.193 173.563ZM293.193 173.536L273.193 173.562L273.168 151.361L293.168 151.335L293.193 173.536ZM314.193 173.508L294.193 173.535L294.168 151.334L314.168 151.308L314.193 173.508ZM335.193 173.481L315.193 173.507L315.168 151.306L335.168 151.28L335.193 173.481ZM335.167 150.28L335.143 128.079L315.143 128.105L315.167 150.306L335.167 150.28ZM314.167 150.308L314.143 128.107L294.143 128.133L294.167 150.334L314.167 150.308ZM293.167 150.335L293.143 128.134L273.143 128.16L273.167 150.361L293.167 150.335ZM272.167 150.363L272.143 128.162L252.143 128.188L252.167 150.389L272.167 150.363ZM251.167 150.39L251.143 128.189L231.143 128.215L231.167 150.416L251.167 150.39ZM230.167 150.417L230.143 128.217L210.143 128.243L210.167 150.444L230.167 150.417ZM209.167 150.445L209.143 128.244L189.143 128.27L189.167 150.471L209.167 150.445ZM188.167 150.472L188.143 128.272L168.143 128.298L168.167 150.499L188.167 150.472ZM167.167 150.5L167.143 128.299L147.143 128.325L147.168 150.526L167.167 150.5ZM146.168 150.527L146.143 128.327L126.143 128.353L126.168 150.554L146.168 150.527ZM125.168 150.555L125.143 128.354L105.143 128.38L105.168 150.581L125.168 150.555ZM104.168 150.582L104.143 128.382L84.1429 128.408L84.1676 150.609L104.168 150.582ZM83.1676 150.61L83.1429 128.409L63.1429 128.435L63.1676 150.636L83.1676 150.61ZM62.1676 150.637L62.1429 128.437L42.143 128.463L42.1677 150.664L62.1676 150.637ZM41.1677 150.665L41.143 128.464L21.143 128.49L21.1677 150.691L41.1677 150.665ZM41.1418 127.464L21.1419 127.49L21.1171 105.29L41.1171 105.263L41.1418 127.464ZM62.1418 127.437L42.1418 127.463L42.1171 105.262L62.1171 105.236L62.1418 127.437ZM83.1418 127.409L63.1418 127.435L63.1171 105.235L83.1171 105.208L83.1418 127.409ZM104.142 127.382L84.1418 127.408L84.117 105.207L104.117 105.181L104.142 127.382ZM125.142 127.354L105.142 127.38L105.117 105.18L125.117 105.153L125.142 127.354ZM146.142 127.327L126.142 127.353L126.117 105.152L146.117 105.126L146.142 127.327ZM167.142 127.299L147.142 127.325L147.117 105.125L167.117 105.098L167.142 127.299ZM188.142 127.272L168.142 127.298L168.117 105.097L188.117 105.071L188.142 127.272ZM209.142 127.244L189.142 127.27L189.117 105.07L209.117 105.043L209.142 127.244ZM230.142 127.217L210.142 127.243L210.117 105.042L230.117 105.016L230.142 127.217ZM251.142 127.189L231.142 127.215L231.117 105.015L251.117 104.988L251.142 127.189ZM272.142 127.162L252.142 127.188L252.117 104.987L272.117 104.961L272.142 127.162ZM293.141 127.134L273.142 127.16L273.117 104.96L293.117 104.933L293.141 127.134ZM314.141 127.107L294.141 127.133L294.117 104.932L314.117 104.906L314.141 127.107ZM335.141 127.079L315.141 127.105L315.117 104.905L335.117 104.878L335.141 127.079ZM335.116 103.878L335.091 81.6777L315.091 81.7039L315.116 103.905L335.116 103.878ZM314.116 103.906L314.091 81.7052L294.091 81.7314L294.116 103.932L314.116 103.906ZM293.116 103.933L293.091 81.7327L273.091 81.7589L273.116 103.96L293.116 103.933ZM272.116 103.961L272.091 81.7602L252.091 81.7863L252.116 103.987L272.116 103.961ZM251.116 103.988L251.091 81.7877L231.091 81.8138L231.116 104.015L251.116 103.988ZM230.116 104.016L230.091 81.8151L210.091 81.8413L210.116 104.042L230.116 104.016ZM209.116 104.043L209.091 81.8426L189.091 81.8688L189.116 104.07L209.116 104.043ZM188.116 104.071L188.091 81.8701L168.091 81.8963L168.116 104.097L188.116 104.071ZM167.116 104.098L167.091 81.8976L147.091 81.9238L147.116 104.125L167.116 104.098ZM146.116 104.126L146.091 81.9251L126.091 81.9513L126.116 104.152L146.116 104.126ZM125.116 104.153L125.091 81.9526L105.091 81.9788L105.116 104.18L125.116 104.153ZM104.116 104.181L104.091 81.9801L84.0912 82.0063L84.1159 104.207L104.116 104.181ZM83.1159 104.208L83.0912 82.0076L63.0913 82.0337L63.116 104.235L83.1159 104.208ZM62.116 104.236L62.0913 82.0351L42.0913 82.0612L42.116 104.262L62.116 104.236ZM41.116 104.263L41.0913 82.0625L21.0913 82.0887L21.116 104.29L41.116 104.263ZM41.0902 81.0625L21.0902 81.0887L21.0655 58.8879L41.0654 58.8618L41.0902 81.0625ZM62.0901 81.0351L42.0902 81.0612L42.0654 58.8605L62.0654 58.8343L62.0901 81.0351ZM83.0901 81.0076L63.0901 81.0337L63.0654 58.833L83.0654 58.8068L83.0901 81.0076ZM104.09 80.9801L84.0901 81.0063L84.0654 58.8055L104.065 58.7793L104.09 80.9801ZM125.09 80.9526L105.09 80.9788L105.065 58.778L125.065 58.7518L125.09 80.9526ZM146.09 80.9251L126.09 80.9513L126.065 58.7505L146.065 58.7243L146.09 80.9251ZM167.09 80.8976L147.09 80.9238L147.065 58.723L167.065 58.6968L167.09 80.8976ZM188.09 80.8701L168.09 80.8963L168.065 58.6955L188.065 58.6693L188.09 80.8701ZM209.09 80.8426L189.09 80.8688L189.065 58.668L209.065 58.6419L209.09 80.8426ZM230.09 80.8151L210.09 80.8413L210.065 58.6405L230.065 58.6144L230.09 80.8151ZM251.09 80.7877L231.09 80.8138L231.065 58.6131L251.065 58.5869L251.09 80.7877ZM272.09 80.7602L252.09 80.7863L252.065 58.5856L272.065 58.5594L272.09 80.7602ZM293.09 80.7327L273.09 80.7589L273.065 58.5581L293.065 58.5319L293.09 80.7327ZM314.09 80.7052L294.09 80.7314L294.065 58.5306L314.065 58.5044L314.09 80.7052ZM335.09 80.6777L315.09 80.7039L315.065 58.5031L335.065 58.4769L335.09 80.6777ZM335.064 57.4769L335.039 35.2737L315.039 35.2974L315.064 57.5031L335.064 57.4769ZM314.064 57.5044L314.039 35.2986L294.039 35.3223L294.064 57.5306L314.064 57.5044ZM293.064 57.5319L293.039 35.3234L273.039 35.3471L273.064 57.5581L293.064 57.5319ZM272.064 57.5594L272.039 35.3483L252.039 35.372L252.064 57.5856L272.064 57.5594ZM251.064 57.5869L251.039 35.3732L231.039 35.3969L231.064 57.6131L251.064 57.5869ZM230.064 57.6144L230.039 35.3981L210.039 35.4218L210.064 57.6405L230.064 57.6144ZM209.064 57.6419L209.039 35.423L189.039 35.4467L189.064 57.668L209.064 57.6419ZM188.064 57.6693L188.039 35.4479L168.039 35.4716L168.064 57.6955L188.064 57.6693ZM167.064 57.6968L167.039 35.4727L147.039 35.4964L147.064 57.723L167.064 57.6968ZM146.064 57.7243L146.039 35.4976L126.039 35.5213L126.064 57.7505L146.064 57.7243ZM125.064 57.7518L125.039 35.5225L105.039 35.5462L105.064 57.778L125.064 57.7518ZM104.064 57.7793L104.039 35.5474L84.0395 35.5711L84.0643 57.8055L104.064 57.7793ZM83.0643 57.8068L83.0395 35.5723L63.0395 35.596L63.0643 57.833L83.0643 57.8068ZM62.0643 57.8343L62.0395 35.5971L42.0396 35.6208L42.0643 57.8605L62.0643 57.8343ZM41.0643 57.8618L41.0396 35.622L21.0396 35.6457L21.0644 57.8879L41.0643 57.8618Z" fill="#161F36"/>
</svg>
