<svg width="39" height="40" viewBox="0 0 39 40" fill="none" xmlns="http://www.w3.org/2000/svg">
<path d="M22.4251 30.9739L22.4111 13.5463L16.0111 13.5514L16.0182 22.3514L16.0197 24.3061C16.02 24.5843 16.1592 24.844 16.3908 24.9981L17.3824 25.658C17.8767 25.987 17.8773 26.7128 17.3835 27.0426L16.5416 27.6048C16.2947 27.7697 16.295 28.1326 16.5421 28.2971L17.385 28.858C17.8792 29.187 17.8798 29.9128 17.3861 30.2426L16.4472 30.8696C16.2289 31.0154 16.1986 31.3244 16.3843 31.5099L18.9334 34.0549C19.096 34.2172 19.3594 34.217 19.5217 34.0544L22.3035 31.2682C22.3814 31.1901 22.4252 31.0843 22.4251 30.9739Z" fill="#5C4669"/>
<rect x="20.8135" y="16.7474" width="9.6" height="1.6" rx="0.8" transform="rotate(89.9541 20.8135 16.7474)" fill="#FF6565"/>
<path fill-rule="evenodd" clip-rule="evenodd" d="M24.4831 6.38143C23.5377 5.54523 22.0929 5.54639 19.2035 5.54871C16.3141 5.55102 14.8694 5.55218 13.9253 6.38989C13.825 6.47888 13.7302 6.57386 13.6414 6.67429C12.8052 7.61969 12.8063 9.0644 12.8086 11.9538C12.811 14.8433 12.8121 16.288 13.6498 17.232C13.7388 17.3323 13.8338 17.4271 13.9342 17.516C14.8796 18.3522 16.3243 18.351 19.2138 18.3487C22.1032 18.3464 23.5479 18.3452 24.492 17.5075C24.5923 17.4185 24.6871 17.3235 24.7759 17.2231C25.6121 16.2777 25.611 14.833 25.6086 11.9436C25.6063 9.05415 25.6052 7.60944 24.7675 6.66538C24.6785 6.56509 24.5835 6.47027 24.4831 6.38143ZM22.4074 10.3462C22.4067 9.4625 21.6898 8.74672 20.8061 8.74743C19.9225 8.74814 19.2067 9.46506 19.2074 10.3487C19.2081 11.2324 19.925 11.9481 20.8087 11.9474C21.6923 11.9467 22.4081 11.2298 22.4074 10.3462Z" fill="#FC7B7B"/>
</svg>
