<svg width="40" height="39" viewBox="0 0 40 39" fill="none" xmlns="http://www.w3.org/2000/svg">
<rect x="6.86328" y="3.97437" width="22.4" height="28.8" rx="3.18933" fill="#5C4669"/>
<rect x="18.8965" y="29.1832" width="11.008" height="2.752" rx="1.376" stroke="#FC7B7B" stroke-width="1.376"/>
<path d="M19.5222 25.9939L21.6485 29.1833L27.1525 29.1833L29.2788 25.9939C29.5783 25.5446 29.7281 25.3199 29.7038 25.0751C29.6796 24.8304 29.4887 24.6395 29.1068 24.2576L24.4005 19.5513L19.6941 24.2576C19.3123 24.6395 19.1214 24.8304 19.0971 25.0751C19.0729 25.3199 19.2227 25.5446 19.5222 25.9939Z" stroke="#FC7B7B" stroke-width="1.376"/>
<circle cx="24.3999" cy="25.7432" r="1.376" stroke="#FC7B7B" stroke-width="1.376"/>
<path d="M24.3994 19.5513L24.3994 24.3673" stroke="#FC7B7B" stroke-width="1.376"/>
<path d="M10.8633 9.57422L22.0633 9.57422" stroke="#FC7B7B" stroke-width="1.59467" stroke-linecap="round"/>
<path d="M10.8633 14.3741L17.2633 14.3741" stroke="#FC7B7B" stroke-width="1.59467" stroke-linecap="round"/>
</svg>
