<svg width="124" height="124" viewBox="0 0 124 124" fill="none" xmlns="http://www.w3.org/2000/svg">
<path d="M63.5785 91.8729L62.8736 90.5015L62.8736 90.5015L63.5785 91.8729ZM59.9215 91.873L59.2166 93.2444L59.2167 93.2444L59.9215 91.873ZM96.188 46.5083C96.188 58.9616 89.776 68.9923 82.311 76.4513C74.8482 83.9082 66.4672 88.6545 62.8736 90.5015L64.2834 93.2444C68.0143 91.3269 76.7091 86.4085 84.4909 78.6329C92.2705 70.8595 99.272 60.0901 99.272 46.5083H96.188ZM61.75 12.0703C80.7696 12.0703 96.188 27.4887 96.188 46.5083H99.272C99.272 25.7855 82.4728 8.98632 61.75 8.98632V12.0703ZM27.312 46.5083C27.312 27.4887 42.7304 12.0703 61.75 12.0703V8.98632C41.0272 8.98632 24.228 25.7855 24.228 46.5083H27.312ZM60.6264 90.5015C57.0328 88.6545 48.6518 83.9082 41.189 76.4513C33.724 68.9923 27.312 58.9616 27.312 46.5083H24.228C24.228 60.0901 31.2295 70.8596 39.0092 78.6329C46.791 86.4085 55.4857 91.3269 59.2166 93.2444L60.6264 90.5015ZM62.8736 90.5015C62.1522 90.8723 61.3479 90.8723 60.6264 90.5015L59.2167 93.2444C60.8229 94.07 62.6771 94.07 64.2834 93.2444L62.8736 90.5015ZM75.6268 46.5061C75.6268 54.1707 69.4134 60.3841 61.7488 60.3841V63.4681C71.1166 63.4681 78.7108 55.8739 78.7108 46.5061H75.6268ZM61.7488 32.6281C69.4134 32.6281 75.6268 38.8415 75.6268 46.5061H78.7108C78.7108 37.1382 71.1166 29.5441 61.7488 29.5441V32.6281ZM47.8708 46.5061C47.8708 38.8415 54.0841 32.6281 61.7488 32.6281V29.5441C52.3809 29.5441 44.7868 37.1382 44.7868 46.5061H47.8708ZM61.7488 60.3841C54.0841 60.3841 47.8708 54.1707 47.8708 46.5061H44.7868C44.7868 55.8739 52.3809 63.4681 61.7488 63.4681V60.3841Z" fill="#FF6565"/>
<path d="M101.813 90.1973C105.873 92.5414 108.011 95.2005 108.011 97.9073C108.011 100.614 105.873 103.273 101.813 105.617C97.7531 107.961 91.9134 109.908 84.881 111.261C77.8486 112.615 69.8713 113.327 61.751 113.327C53.6306 113.327 45.6534 112.615 38.621 111.261C31.5886 109.908 25.7488 107.961 21.6886 105.617C17.6285 103.273 15.491 100.614 15.491 97.9073C15.491 95.2005 17.6285 92.5414 21.6886 90.1973" stroke="#FF6565" stroke-width="3.084" stroke-linecap="round"/>
</svg>
