<svg width="85" height="85" viewBox="0 0 85 85" fill="none" xmlns="http://www.w3.org/2000/svg">
<path d="M67.8735 54.5331L81.3033 67.963C83.1093 69.7689 83.1093 72.6969 81.3033 74.5028C71.5397 84.2665 56.0824 85.365 45.036 77.0803L37.0464 71.088C28.2041 64.4563 20.3493 56.6015 13.7176 47.7593L7.72537 39.7696C-0.559382 28.7233 0.539135 13.266 10.3028 3.50234C12.1087 1.69641 15.0367 1.69641 16.8427 3.50234L30.2725 16.9322C32.2531 18.9127 32.2531 22.1238 30.2725 24.1043L25.0938 29.2831C24.2708 30.1061 24.0668 31.3634 24.5873 32.4044C30.6054 44.4407 40.365 54.2003 52.4012 60.2184C53.4423 60.7389 54.6996 60.5349 55.5226 59.7118L60.7013 54.5331C62.6819 52.5526 65.8929 52.5526 67.8735 54.5331Z" stroke="#FF6565" stroke-width="3.084"/>
</svg>
