<svg width="39" height="39" viewBox="0 0 39 39" fill="none" xmlns="http://www.w3.org/2000/svg">
<rect x="6.73047" y="4.9436" width="22.3253" height="28.704" rx="3.18933" fill="#5C4669"/>
<path fill-rule="evenodd" clip-rule="evenodd" d="M18.2653 24.0853C17.3998 24.0853 16.6982 24.7869 16.6982 25.6523L16.6982 29.8808C16.6982 31.5751 16.6982 32.4223 17.0869 33.0408C17.2895 33.3634 17.5623 33.6361 17.8848 33.8387C18.5033 34.2274 19.3505 34.2274 21.0449 34.2274L27.5647 34.2274C29.2591 34.2274 30.1063 34.2274 30.7248 33.8387C31.0473 33.6361 31.3201 33.3634 31.5227 33.0408C31.9114 32.4223 31.9114 31.5751 31.9114 29.8808L31.9114 25.6523C31.9114 24.7869 31.2098 24.0853 30.3443 24.0853C29.7508 24.0853 29.2082 23.7499 28.9427 23.219L28.2489 21.8315C28.156 21.6456 28.1095 21.5527 28.0568 21.4719C27.7819 21.0501 27.3333 20.7729 26.8332 20.7156C26.7373 20.7046 26.6334 20.7046 26.4256 20.7046L22.184 20.7046C21.9762 20.7046 21.8723 20.7046 21.7764 20.7156C21.2763 20.7729 20.8277 21.0501 20.5528 21.4719C20.5001 21.5527 20.4536 21.6456 20.3607 21.8315L19.6669 23.219C19.4014 23.7499 18.8588 24.0853 18.2653 24.0853ZM26.8405 28.3111C26.8405 29.7115 25.7053 30.8467 24.305 30.8467C22.9046 30.8467 21.7695 29.7115 21.7695 28.3111C21.7695 26.9108 22.9046 25.7756 24.305 25.7756C25.7053 25.7756 26.8405 26.9108 26.8405 28.3111ZM27.6857 28.3111C27.6857 30.1783 26.1721 31.6918 24.305 31.6918C22.4379 31.6918 20.9243 30.1783 20.9243 28.3111C20.9243 26.444 22.4379 24.9305 24.305 24.9305C26.1721 24.9305 27.6857 26.444 27.6857 28.3111Z" fill="#FF6565"/>
<path d="M10.7168 10.5249L21.8795 10.5249" stroke="#FC7B7B" stroke-width="1.59467" stroke-linecap="round"/>
<path d="M10.7168 15.3087L17.0955 15.3087" stroke="#FC7B7B" stroke-width="1.59467" stroke-linecap="round"/>
</svg>
