<svg width="41" height="40" viewBox="0 0 41 40" fill="none" xmlns="http://www.w3.org/2000/svg">
<path d="M15.8727 22.7626C16.1789 16.717 19.1101 10.9899 25.4774 10.9899C31.8448 10.9899 34.776 16.717 35.0822 22.7626C35.1121 23.3529 34.63 23.8325 34.039 23.8325L16.9159 23.8325C16.3249 23.8325 15.8428 23.3529 15.8727 22.7626Z" fill="#F7F0D8" fill-opacity="0.11"/>
<path d="M0.89024 22.7626C1.19648 16.717 4.12764 10.9899 10.495 10.9899C16.8624 10.9899 19.7935 16.717 20.0998 22.7626C20.1297 23.3529 19.6476 23.8325 19.0565 23.8325L1.93349 23.8325C1.34243 23.8325 0.860338 23.3529 0.89024 22.7626Z" fill="#F7F0D8" fill-opacity="0.11"/>
<path d="M7.3151 24.9017C7.65533 18.8561 10.9122 13.1289 17.9871 13.1289C25.062 13.1289 28.3188 18.8561 28.6591 24.9017C28.6923 25.4919 28.2099 25.9715 27.6188 25.9715L8.35536 25.9715C7.7643 25.9715 7.28189 25.4919 7.3151 24.9017Z" fill="#5C4669"/>
<ellipse cx="25.3861" cy="5.88942" rx="5.35096" ry="5.35109" fill="#F7F0D8" fill-opacity="0.11"/>
<ellipse cx="5.35096" cy="5.35109" rx="5.35096" ry="5.35109" transform="matrix(-1 0 0 1 15.7539 0.53833)" fill="#F7F0D8" fill-opacity="0.11"/>
<ellipse cx="17.8967" cy="6.95963" rx="6.42115" ry="6.4213" fill="#5C4669"/>
<ellipse cx="29.9707" cy="28.5752" rx="6.65822" ry="6.65822" stroke="#FF6565" stroke-opacity="0.84" stroke-width="2.70938"/>
<path d="M39.957 38.5623L36.6279 35.2332" stroke="#FF6565" stroke-opacity="0.84" stroke-width="1.35469" stroke-linecap="round"/>
</svg>
