<svg width="39" height="39" viewBox="0 0 39 39" fill="none" xmlns="http://www.w3.org/2000/svg">
<path d="M26.2113 5.69018L31.4376 7.93004C32.1122 8.21914 32.5496 8.88244 32.5496 9.61636L32.5496 21.0883C32.5496 24.6434 30.8327 27.9796 27.9399 30.0459L20.7733 35.1649C20.1354 35.6205 19.2785 35.6205 18.6405 35.1649L11.474 30.0459C8.58113 27.9796 6.86426 24.6434 6.86426 21.0883L6.86426 9.61636C6.86426 8.88244 7.30164 8.21914 7.97621 7.93004L13.2025 5.69019C17.3561 3.91008 22.0577 3.91008 26.2113 5.69018Z" fill="#5C4669"/>
<path d="M13.1019 19.4144L17.2716 23.5841C17.4006 23.7131 17.6097 23.7131 17.7386 23.5841L26.3115 15.0112" stroke="#FC7B7B" stroke-width="2.2016"/>
</svg>
