<svg width="1707" height="578" viewBox="0 0 1707 578" fill="none" xmlns="http://www.w3.org/2000/svg">
<rect x="0.976562" y="3.37158" width="1704.62" height="573.952" stroke="black"/>
<line y1="-1.88698" x2="1703.34" y2="-1.88698" transform="matrix(0.999999 -0.000991823 0.00125029 0.999999 1.47754 576.824)" stroke="#161F36" stroke-width="3.77396"/>
<line y1="-1.88698" x2="1703.34" y2="-1.88698" transform="matrix(0.999999 -0.000991823 0.00125029 0.999999 1.47656 505.442)" stroke="#161F36" stroke-width="3.77396"/>
<line y1="-1.88698" x2="1703.34" y2="-1.88698" transform="matrix(0.999999 -0.000991823 0.00125029 0.999999 1.47754 434.063)" stroke="#161F36" stroke-width="3.77396"/>
<line y1="-1.88698" x2="1703.34" y2="-1.88698" transform="matrix(0.999999 -0.000991823 0.00125029 0.999999 1.47656 362.682)" stroke="#161F36" stroke-width="3.77396"/>
<line y1="-1.88698" x2="1703.34" y2="-1.88698" transform="matrix(0.999999 -0.000991823 0.00125029 0.999999 1.47656 291.301)" stroke="#161F36" stroke-width="3.77396"/>
<line y1="-1.88698" x2="1703.34" y2="-1.88698" transform="matrix(0.999999 -0.000991823 0.00125029 0.999999 1.47754 219.921)" stroke="#161F36" stroke-width="3.77396"/>
<line y1="-1.88698" x2="1703.34" y2="-1.88698" transform="matrix(0.999999 -0.000991823 0.00125029 0.999999 1.47656 148.542)" stroke="#161F36" stroke-width="3.77396"/>
<line y1="-1.88698" x2="1703.34" y2="-1.88698" transform="matrix(0.999999 -0.000991823 0.00125029 0.999999 1.47754 77.1587)" stroke="#161F36" stroke-width="3.77396"/>
<line y1="-1.88698" x2="1703.34" y2="-1.88698" transform="matrix(0.999999 -0.000991823 0.00125029 0.999999 1.47656 5.77783)" stroke="#161F36" stroke-width="3.77396"/>
<path fill-rule="evenodd" clip-rule="evenodd" d="M1.47656 575.133L1.47656 3.87189L5.25053 3.87238L5.25053 575.133L1.47656 575.133ZM86.273 575.134L82.499 575.132L82.499 3.87183L86.273 3.87335L86.273 575.134ZM163.442 575.132L163.442 3.87183L167.216 3.87335L167.216 575.134L163.442 575.132ZM244.379 3.87183L244.379 575.132L248.153 575.134L248.153 3.87329L244.379 3.87183ZM325.321 575.132L325.321 3.87183L329.095 3.87329L329.095 575.134L325.321 575.132ZM406.267 3.87183L406.267 575.132L410.041 575.134L410.041 3.87335L406.267 3.87183ZM487.204 575.132L487.204 3.87183L490.978 3.87329L490.978 575.134L487.204 575.132ZM568.147 3.87183L568.147 575.132L571.921 575.134L571.921 3.87329L568.147 3.87183ZM649.095 575.132L649.095 3.87183L652.869 3.87335L652.869 575.134L649.095 575.132ZM730.035 3.87183L730.035 575.132L733.809 575.134L733.809 3.87335L730.035 3.87183ZM810.975 575.132L810.975 3.87183L814.749 3.87329L814.749 575.134L810.975 575.132ZM891.919 3.87183L891.919 575.132L895.693 575.134L895.693 3.87335L891.919 3.87183ZM972.862 575.132L972.862 3.87183L976.636 3.87335L976.636 575.134L972.862 575.132ZM1053.8 3.87183L1053.8 575.132L1057.57 575.134L1057.57 3.87329L1053.8 3.87183ZM1134.74 575.132L1134.74 3.87183L1138.51 3.87329L1138.51 575.134L1134.74 575.132ZM1215.68 3.87183L1215.68 575.132L1219.46 575.134L1219.46 3.87329L1215.68 3.87183ZM1296.62 575.133L1296.62 3.87231L1300.4 3.87378L1300.4 575.134L1296.62 575.133ZM1377.56 3.87231L1377.56 575.133L1381.34 575.134L1381.34 3.87347L1377.56 3.87231ZM1458.51 575.134L1458.51 3.87305L1462.28 3.87402L1462.28 575.135L1458.51 575.134ZM1539.45 3.87305L1539.45 575.134L1543.22 575.135L1543.22 3.8739L1539.45 3.87305ZM1620.39 575.134L1620.39 3.87323L1624.16 3.87415L1624.16 575.135L1620.39 575.134ZM1701.32 3.87323L1701.32 575.134L1705.09 575.135L1705.09 3.87408L1701.32 3.87323Z" fill="#161F36"/>
<rect x="411.129" y="361.837" width="238.997" height="138.198" fill="#10002A"/>
<rect x="1381.18" y="75.5151" width="239.202" height="138.672" fill="#10002A"/>
<rect x="86.2939" y="76.8335" width="238.997" height="138.198" fill="#10002A"/>
<rect x="86.2939" y="361.837" width="238.997" height="138.198" fill="#10002A"/>
<rect x="733.12" y="361.837" width="238.997" height="138.198" fill="#10002A"/>
<rect x="1057.27" y="360.993" width="238.997" height="138.198" fill="#10002A"/>
<rect x="1383.81" y="360.993" width="238.997" height="138.198" fill="#10002A"/>
<rect x="410.666" y="76.606" width="237.686" height="139.051" fill="#10002A"/>
<rect x="734.259" y="76.314" width="237.858" height="137.873" fill="#10002A"/>
<rect x="1057.84" y="76.314" width="238.424" height="137.873" fill="#10002A"/>
</svg>
